<svg width="25" height="25" viewBox="0 0 25 25" fill="none" xmlns="http://www.w3.org/2000/svg">
<path d="M22.9714 9.27142C22.9714 12.8614 20.0614 15.7714 16.4714 15.7714C16.3014 15.7714 16.1214 15.7614 15.9514 15.7514C15.7014 12.5814 13.1614 10.0414 9.99142 9.79141C9.98142 9.62141 9.97144 9.44142 9.97144 9.27142C9.97144 5.68142 12.8814 2.77142 16.4714 2.77142C20.0614 2.77142 22.9714 5.68142 22.9714 9.27142Z" stroke="#FAFAFA" stroke-width="1.5" stroke-linecap="round" stroke-linejoin="round"/>
<path d="M15.9714 16.2714C15.9714 19.8614 13.0614 22.7714 9.47144 22.7714C5.88144 22.7714 2.97144 19.8614 2.97144 16.2714C2.97144 12.6814 5.88144 9.77142 9.47144 9.77142C9.64144 9.77142 9.82142 9.78141 9.99142 9.79141C13.1614 10.0414 15.7014 12.5814 15.9514 15.7514C15.9614 15.9214 15.9714 16.1014 15.9714 16.2714Z" stroke="#FAFAFA" stroke-width="1.5" stroke-linecap="round" stroke-linejoin="round"/>
<path d="M8.59143 15.3914L9.47144 13.7714L10.3514 15.3914L11.9714 16.2714L10.3514 17.1514L9.47144 18.7714L8.59143 17.1514L6.97144 16.2714L8.59143 15.3914Z" stroke="#FAFAFA" stroke-width="1.5" stroke-linecap="round" stroke-linejoin="round"/>
</svg>
