<svg width="24" height="25" viewBox="0 0 24 25" fill="none" xmlns="http://www.w3.org/2000/svg">
<g id="colorfilter">
<g id="colorfilter_2">
<path id="Vector" d="M14 16.7714C14 18.5414 13.23 20.1414 12 21.2314C10.94 22.1914 9.54 22.7714 8 22.7714C4.69 22.7714 2 20.0814 2 16.7714C2 14.0114 3.88 11.6714 6.42 10.9814C7.11 12.7214 8.59 14.0614 10.42 14.5614C10.92 14.7014 11.45 14.7714 12 14.7714C12.55 14.7714 13.08 14.7014 13.58 14.5614C13.85 15.2414 14 15.9914 14 16.7714Z" stroke="#FAFAFA" stroke-width="1.5" stroke-linecap="round" stroke-linejoin="round"/>
<path id="Vector_2" d="M18 8.77142C18 9.55142 17.85 10.3014 17.58 10.9814C16.89 12.7214 15.41 14.0614 13.58 14.5614C13.08 14.7014 12.55 14.7714 12 14.7714C11.45 14.7714 10.92 14.7014 10.42 14.5614C8.59 14.0614 7.11 12.7214 6.42 10.9814C6.15 10.3014 6 9.55142 6 8.77142C6 5.46142 8.69 2.77142 12 2.77142C15.31 2.77142 18 5.46142 18 8.77142Z" stroke="#FAFAFA" stroke-width="1.5" stroke-linecap="round" stroke-linejoin="round"/>
<path id="Vector_3" d="M22 16.7714C22 20.0814 19.31 22.7714 16 22.7714C14.46 22.7714 13.06 22.1914 12 21.2314C13.23 20.1414 14 18.5414 14 16.7714C14 15.9914 13.85 15.2414 13.58 14.5614C15.41 14.0614 16.89 12.7214 17.58 10.9814C20.12 11.6714 22 14.0114 22 16.7714Z" stroke="#FAFAFA" stroke-width="1.5" stroke-linecap="round" stroke-linejoin="round"/>
</g>
</g>
</svg>
