<svg width="120" height="98" viewBox="0 0 120 98" fill="none" xmlns="http://www.w3.org/2000/svg">
<g filter="url(#filter0_iiii_3_1630)">
<path d="M65.7878 1.32947H28.2121C12.9071 1.32947 0.5 13.7366 0.5 29.0415V66.6172C0.5 81.9221 12.9071 94.3293 28.2121 94.3293H65.7878C81.0927 94.3293 93.4999 81.9221 93.4999 66.6172V29.0415C93.4999 13.7366 81.0927 1.32947 65.7878 1.32947Z" fill="url(#paint0_linear_3_1630)"/>
</g>
<path d="M62.9692 10.7235H31.0299C19.3566 10.7235 9.89355 20.1866 9.89355 31.8598V63.7991C9.89355 75.4724 19.3566 84.9354 31.0299 84.9354H62.9692C74.6425 84.9354 84.1056 75.4724 84.1056 63.7991V31.8598C84.1056 20.1866 74.6425 10.7235 62.9692 10.7235Z" fill="url(#paint1_linear_3_1630)" stroke="url(#paint2_linear_3_1630)" stroke-width="0.28"/>
<path d="M58.2724 20.1169H35.727C26.6478 20.1169 19.2876 27.477 19.2876 36.5562V59.1016C19.2876 68.1808 26.6478 75.541 35.727 75.541H58.2724C67.3516 75.541 74.7118 68.1808 74.7118 59.1016V36.5562C74.7118 27.477 67.3516 20.1169 58.2724 20.1169Z" fill="url(#paint3_linear_3_1630)" stroke="url(#paint4_linear_3_1630)" stroke-width="0.28"/>
<line opacity="0.5" x1="47.182" y1="1.32947" x2="47.182" y2="94.3293" stroke="url(#paint5_linear_3_1630)" stroke-width="0.364"/>
<line opacity="0.5" x1="93.5" y1="48.0113" x2="0.500145" y2="48.0113" stroke="url(#paint6_linear_3_1630)" stroke-width="0.364"/>
<g filter="url(#filter1_ddddd_3_1630)">
<path d="M47.4418 38.0267V51.0379L68.8019 43.7837C70.8999 43.0712 72.2932 41.232 72.2932 39.1752V31.5409C72.2932 30.582 71.351 29.9069 70.443 30.2153L47.4418 38.0267Z" fill="url(#paint7_linear_3_1630)"/>
<path d="M46.682 24.8085C47.1363 24.9628 47.4418 25.3893 47.4418 25.869V41.5007C47.4418 39.4439 46.0485 37.6047 43.9505 36.8922L26.0817 30.8236C23.9837 30.1111 22.5903 28.2719 22.5903 26.2151V18.19C22.5903 17.4229 23.3441 16.8828 24.0705 17.1295L46.682 24.8085Z" fill="url(#paint8_linear_3_1630)"/>
<path d="M47.4418 51.0379L47.4419 64.049L26.0817 56.7949C23.9837 56.0823 22.5904 54.2432 22.5904 52.1864V44.1613C22.5904 43.3942 23.3442 42.8541 24.0706 43.1008L47.4418 51.0379Z" fill="url(#paint9_linear_3_1630)"/>
<path fill-rule="evenodd" clip-rule="evenodd" d="M37.212 53.053V79.0162C37.212 79.6347 37.7135 80.1362 38.332 80.1362H46.3297C46.9488 80.1362 47.4505 79.6338 47.4497 79.0147L47.4156 53.053H37.212Z" fill="url(#paint10_linear_3_1630)"/>
</g>
<defs>
<filter id="filter0_iiii_3_1630" x="-5.73515" y="1.32947" width="99.2351" height="99.2349" filterUnits="userSpaceOnUse" color-interpolation-filters="sRGB">
<feFlood flood-opacity="0" result="BackgroundImageFix"/>
<feBlend mode="normal" in="SourceGraphic" in2="BackgroundImageFix" result="shape"/>
<feColorMatrix in="SourceAlpha" type="matrix" values="0 0 0 0 0 0 0 0 0 0 0 0 0 0 0 0 0 0 127 0" result="hardAlpha"/>
<feOffset dx="-0.519596" dy="0.519596"/>
<feGaussianBlur stdDeviation="1.03919"/>
<feComposite in2="hardAlpha" operator="arithmetic" k2="-1" k3="1"/>
<feColorMatrix type="matrix" values="0 0 0 0 0 0 0 0 0 0 0 0 0 0 0 0 0 0 0.17 0"/>
<feBlend mode="normal" in2="shape" result="effect1_innerShadow_3_1630"/>
<feColorMatrix in="SourceAlpha" type="matrix" values="0 0 0 0 0 0 0 0 0 0 0 0 0 0 0 0 0 0 127 0" result="hardAlpha"/>
<feOffset dx="-3.11757" dy="2.07838"/>
<feGaussianBlur stdDeviation="1.81859"/>
<feComposite in2="hardAlpha" operator="arithmetic" k2="-1" k3="1"/>
<feColorMatrix type="matrix" values="0 0 0 0 0 0 0 0 0 0 0 0 0 0 0 0 0 0 0.15 0"/>
<feBlend mode="normal" in2="effect1_innerShadow_3_1630" result="effect2_innerShadow_3_1630"/>
<feColorMatrix in="SourceAlpha" type="matrix" values="0 0 0 0 0 0 0 0 0 0 0 0 0 0 0 0 0 0 127 0" result="hardAlpha"/>
<feOffset dx="-6.75475" dy="4.67636"/>
<feGaussianBlur stdDeviation="2.59798"/>
<feComposite in2="hardAlpha" operator="arithmetic" k2="-1" k3="1"/>
<feColorMatrix type="matrix" values="0 0 0 0 0 0 0 0 0 0 0 0 0 0 0 0 0 0 0.09 0"/>
<feBlend mode="normal" in2="effect2_innerShadow_3_1630" result="effect3_innerShadow_3_1630"/>
<feColorMatrix in="SourceAlpha" type="matrix" values="0 0 0 0 0 0 0 0 0 0 0 0 0 0 0 0 0 0 127 0" result="hardAlpha"/>
<feOffset dx="-12.4703" dy="8.83313"/>
<feGaussianBlur stdDeviation="3.11757"/>
<feComposite in2="hardAlpha" operator="arithmetic" k2="-1" k3="1"/>
<feColorMatrix type="matrix" values="0 0 0 0 0 0 0 0 0 0 0 0 0 0 0 0 0 0 0.03 0"/>
<feBlend mode="normal" in2="effect3_innerShadow_3_1630" result="effect4_innerShadow_3_1630"/>
</filter>
<filter id="filter1_ddddd_3_1630" x="21.0315" y="11.8732" width="98.0255" height="85.4096" filterUnits="userSpaceOnUse" color-interpolation-filters="sRGB">
<feFlood flood-opacity="0" result="BackgroundImageFix"/>
<feColorMatrix in="SourceAlpha" type="matrix" values="0 0 0 0 0 0 0 0 0 0 0 0 0 0 0 0 0 0 127 0" result="hardAlpha"/>
<feOffset dx="1.55879" dy="0.519596"/>
<feGaussianBlur stdDeviation="1.55879"/>
<feColorMatrix type="matrix" values="0 0 0 0 0 0 0 0 0 0 0 0 0 0 0 0 0 0 0.3 0"/>
<feBlend mode="normal" in2="BackgroundImageFix" result="effect1_dropShadow_3_1630"/>
<feColorMatrix in="SourceAlpha" type="matrix" values="0 0 0 0 0 0 0 0 0 0 0 0 0 0 0 0 0 0 127 0" result="hardAlpha"/>
<feOffset dx="5.71555" dy="1.03919"/>
<feGaussianBlur stdDeviation="2.85778"/>
<feColorMatrix type="matrix" values="0 0 0 0 0 0 0 0 0 0 0 0 0 0 0 0 0 0 0.26 0"/>
<feBlend mode="normal" in2="effect1_dropShadow_3_1630" result="effect2_dropShadow_3_1630"/>
<feColorMatrix in="SourceAlpha" type="matrix" values="0 0 0 0 0 0 0 0 0 0 0 0 0 0 0 0 0 0 127 0" result="hardAlpha"/>
<feOffset dx="12.9899" dy="2.59798"/>
<feGaussianBlur stdDeviation="3.89697"/>
<feColorMatrix type="matrix" values="0 0 0 0 0 0 0 0 0 0 0 0 0 0 0 0 0 0 0.15 0"/>
<feBlend mode="normal" in2="effect2_dropShadow_3_1630" result="effect3_dropShadow_3_1630"/>
<feColorMatrix in="SourceAlpha" type="matrix" values="0 0 0 0 0 0 0 0 0 0 0 0 0 0 0 0 0 0 127 0" result="hardAlpha"/>
<feOffset dx="23.3818" dy="4.67636"/>
<feGaussianBlur stdDeviation="4.67636"/>
<feColorMatrix type="matrix" values="0 0 0 0 0 0 0 0 0 0 0 0 0 0 0 0 0 0 0.05 0"/>
<feBlend mode="normal" in2="effect3_dropShadow_3_1630" result="effect4_dropShadow_3_1630"/>
<feColorMatrix in="SourceAlpha" type="matrix" values="0 0 0 0 0 0 0 0 0 0 0 0 0 0 0 0 0 0 127 0" result="hardAlpha"/>
<feOffset dx="36.3717" dy="6.75475"/>
<feGaussianBlur stdDeviation="5.19596"/>
<feColorMatrix type="matrix" values="0 0 0 0 0 0 0 0 0 0 0 0 0 0 0 0 0 0 0.01 0"/>
<feBlend mode="normal" in2="effect4_dropShadow_3_1630" result="effect5_dropShadow_3_1630"/>
<feBlend mode="normal" in="SourceGraphic" in2="effect5_dropShadow_3_1630" result="shape"/>
</filter>
<linearGradient id="paint0_linear_3_1630" x1="1.73829" y1="2.34302" x2="32.2289" y2="60.3273" gradientUnits="userSpaceOnUse">
<stop stop-color="#383838"/>
<stop offset="1" stop-color="#101010"/>
</linearGradient>
<linearGradient id="paint1_linear_3_1630" x1="10.7902" y1="11.4405" x2="35.1827" y2="57.8279" gradientUnits="userSpaceOnUse">
<stop stop-color="#2A2A2A"/>
<stop offset="1" stop-color="#111111"/>
</linearGradient>
<linearGradient id="paint2_linear_3_1630" x1="14.926" y1="22.7289" x2="49.9374" y2="54.0082" gradientUnits="userSpaceOnUse">
<stop stop-color="white" stop-opacity="0.11"/>
<stop offset="1" stop-color="white" stop-opacity="0.04"/>
</linearGradient>
<linearGradient id="paint3_linear_3_1630" x1="19.8427" y1="20.5372" x2="38.1371" y2="55.3277" gradientUnits="userSpaceOnUse">
<stop stop-color="#1A1A1A"/>
<stop offset="1" stop-color="#111111"/>
</linearGradient>
<linearGradient id="paint4_linear_3_1630" x1="22.9446" y1="29.0035" x2="49.2031" y2="52.4629" gradientUnits="userSpaceOnUse">
<stop stop-color="white" stop-opacity="0.11"/>
<stop offset="1" stop-color="white" stop-opacity="0.04"/>
</linearGradient>
<linearGradient id="paint5_linear_3_1630" x1="47" y1="93.3993" x2="47" y2="1.32947" gradientUnits="userSpaceOnUse">
<stop stop-color="#3C3C3C"/>
<stop offset="0.354167" stop-color="#242424" stop-opacity="0.2"/>
<stop offset="0.666667" stop-color="#242424" stop-opacity="0.2"/>
<stop offset="1" stop-color="#3C3C3C"/>
</linearGradient>
<linearGradient id="paint6_linear_3_1630" x1="1.43014" y1="47.8294" x2="93.5" y2="47.8294" gradientUnits="userSpaceOnUse">
<stop stop-color="#3C3C3C"/>
<stop offset="0.354167" stop-color="#242424" stop-opacity="0.2"/>
<stop offset="0.666667" stop-color="#242424" stop-opacity="0.2"/>
<stop offset="1" stop-color="#3C3C3C"/>
</linearGradient>
<linearGradient id="paint7_linear_3_1630" x1="19.6565" y1="14.618" x2="73.6739" y2="68.4628" gradientUnits="userSpaceOnUse">
<stop stop-color="white"/>
<stop offset="1" stop-color="#E9E9E9"/>
</linearGradient>
<linearGradient id="paint8_linear_3_1630" x1="19.6565" y1="14.618" x2="73.6739" y2="68.4628" gradientUnits="userSpaceOnUse">
<stop stop-color="white"/>
<stop offset="1" stop-color="#E9E9E9"/>
</linearGradient>
<linearGradient id="paint9_linear_3_1630" x1="19.6565" y1="14.618" x2="73.6739" y2="68.4628" gradientUnits="userSpaceOnUse">
<stop stop-color="white"/>
<stop offset="1" stop-color="#E9E9E9"/>
</linearGradient>
<linearGradient id="paint10_linear_3_1630" x1="19.6565" y1="14.618" x2="73.6739" y2="68.4628" gradientUnits="userSpaceOnUse">
<stop stop-color="white"/>
<stop offset="1" stop-color="#E9E9E9"/>
</linearGradient>
</defs>
</svg>
