<svg width="28" height="28" viewBox="0 0 28 28" fill="none" xmlns="http://www.w3.org/2000/svg">
<g filter="url(#filter0_b_1_2501)">
<rect width="28" height="28" rx="8" fill="#8345E6"/>
<path d="M18.5807 10.6179C18.2359 10.4147 17.7877 10.4147 17.4085 10.6179L14.7191 12.1758L12.8918 13.1918L10.2025 14.7497C9.85773 14.9529 9.40951 14.9529 9.03025 14.7497L6.8926 13.5304C6.54782 13.3272 6.30647 12.9547 6.30647 12.5483V10.1437C6.30647 9.73733 6.51334 9.36479 6.8926 9.16158L8.99577 7.97623C9.34055 7.77303 9.78877 7.77303 10.168 7.97623L12.2712 9.16158C12.616 9.36479 12.8573 9.73733 12.8573 10.1437V11.7016L14.6847 10.6517V9.09385C14.6847 8.68744 14.4778 8.3149 14.0986 8.1117L10.2025 5.87646C9.85773 5.67326 9.40951 5.67326 9.03025 5.87646L5.06526 8.1117C4.686 8.3149 4.47913 8.68744 4.47913 9.09385V13.5982C4.47913 14.0046 4.686 14.3772 5.06526 14.5804L9.03025 16.8156C9.37503 17.0188 9.82325 17.0188 10.2025 16.8156L12.8918 15.2916L14.7191 14.2417L17.4085 12.7176C17.7532 12.5144 18.2014 12.5144 18.5807 12.7176L20.6839 13.903C21.0286 14.1062 21.27 14.4788 21.27 14.8852V17.2897C21.27 17.6962 21.0632 18.0687 20.6839 18.2719L18.5807 19.4911C18.2359 19.6943 17.7877 19.6943 17.4085 19.4911L15.3053 18.3057C14.9605 18.1026 14.7191 17.73 14.7191 17.3236V15.7657L12.8918 16.8156V18.3735C12.8918 18.7798 13.0987 19.1524 13.4779 19.3556L17.4429 21.5908C17.7877 21.794 18.2359 21.794 18.6152 21.5908L22.5802 19.3556C22.925 19.1524 23.1663 18.7798 23.1663 18.3735V13.8691C23.1663 13.4627 22.9594 13.0902 22.5802 12.887L18.5807 10.6179Z" fill="white"/>
</g>
<defs>
<filter id="filter0_b_1_2501" x="-2.22467" y="-2.22467" width="32.4493" height="32.4493" filterUnits="userSpaceOnUse" color-interpolation-filters="sRGB">
<feFlood flood-opacity="0" result="BackgroundImageFix"/>
<feGaussianBlur in="BackgroundImageFix" stdDeviation="1.11233"/>
<feComposite in2="SourceAlpha" operator="in" result="effect1_backgroundBlur_1_2501"/>
<feBlend mode="normal" in="SourceGraphic" in2="effect1_backgroundBlur_1_2501" result="shape"/>
</filter>
</defs>
</svg>
