<svg width="24" height="25" viewBox="0 0 24 25" fill="none" xmlns="http://www.w3.org/2000/svg">
<g id="direct-send">
<g id="direct-send_2">
<path id="Vector" d="M12 9.77142V2.77142L10 4.77142" stroke="#FAFAFA" stroke-width="1.5" stroke-linecap="round" stroke-linejoin="round"/>
<path id="Vector_2" d="M12 2.77142L14 4.77142" stroke="#FAFAFA" stroke-width="1.5" stroke-linecap="round" stroke-linejoin="round"/>
<path id="Vector_3" d="M1.97998 13.7714H6.38998C6.76998 13.7714 7.10998 13.9814 7.27998 14.3214L8.44998 16.6614C8.78998 17.3414 9.47998 17.7714 10.24 17.7714H13.77C14.53 17.7714 15.22 17.3414 15.56 16.6614L16.73 14.3214C16.9 13.9814 17.25 13.7714 17.62 13.7714H21.98" stroke="#FAFAFA" stroke-width="1.5" stroke-linecap="round" stroke-linejoin="round"/>
<path id="Vector_4" d="M7 5.90143C3.46 6.42143 2 8.50143 2 12.7714V15.7714C2 20.7714 4 22.7714 9 22.7714H15C20 22.7714 22 20.7714 22 15.7714V12.7714C22 8.50143 20.54 6.42143 17 5.90143" stroke="#FAFAFA" stroke-width="1.5" stroke-linecap="round" stroke-linejoin="round"/>
</g>
</g>
</svg>
